<svg class="border shadow-md" viewBox="0 0 982.471111111111 552.64" xmlns="http://www.w3.org/2000/svg" preserveAspectRatio="none" style="width: 982.471px; height: 552.64px;"><rect class="bg" id="bg" x="0" y="0" width="982.471111111111" height="552.64" fill="#37e831"></rect><g transform="rotate(0 491.2355555555555 276.32)"><path d="M -197.08 -108.16 S -187.00 -227.16
            0.00 -108.16 88.54 -177.24
            197.08 -108.16 253.16 -218.16
            394.16 -108.16 475.24 -177.24
            591.24 -108.16 679.77 -242.16
            788.31 -108.16 876.85 -210.16
            985.39 -108.16 1073.93 -184.16
            1182.47 -108.16 1200.55 -199.16
            1379.55 -108.16 h 110 V 752.64 H -197.08 Z" fill="#FFFFFF" id="-1"></path><path d="M -197.08 30.00 S -108.54 -39.08
            0.00 30.00 88.54 -85.00
            197.08 30.00 285.62 -39.08
            394.16 30.00 482.70 -92.00
            591.24 30.00 599.31 -39.08
            788.31 30.00 798.39 -39.08
            985.39 30.00 1033.47 -39.08
            1182.47 30.00 1269.55 -39.08
            1379.55 30.00 h 110 V 752.64 H -197.08 Z" fill="#FFFFFF" id="0"></path><path d="M -197.08 168.16 S -108.54 61.16
            0.00 168.16 21.08 99.08
            197.08 168.16 273.16 69.16
            394.16 168.16 482.70 71.16
            591.24 168.16 679.77 99.08
            788.31 168.16 876.85 99.08
            985.39 168.16 1009.47 99.08
            1182.47 168.16 1271.01 99.08
            1379.55 168.16 h 110 V 752.64 H -197.08 Z" fill="#c1d1ab" id="1"></path><path d="M -197.08 306.32 S -160.00 237.24
            0.00 306.32 10.08 202.32
            197.08 306.32 226.16 188.32
            394.16 306.32 410.24 215.32
            591.24 306.32 634.31 227.32
            788.31 306.32 876.85 237.24
            985.39 306.32 1073.93 237.24
            1182.47 306.32 1271.01 183.32
            1379.55 306.32 h 110 V 752.64 H -197.08 Z" fill="#a2ba81" id="2"></path><path d="M -197.08 444.48 S -175.00 375.40
            0.00 444.48 23.08 375.40
            197.08 444.48 275.16 370.48
            394.16 444.48 465.24 375.40
            591.24 444.48 614.31 366.48
            788.31 444.48 857.39 375.40
            985.39 444.48 1073.93 375.40
            1182.47 444.48 1189.55 375.40
            1379.55 444.48 h 110 V 752.64 H -197.08 Z" fill="#83a357" id="3"></path></g></svg>