<svg xmlns="http://www.w3.org/2000/svg" enable-background="new 0 0 2000 2000" viewBox="0 0 2000 2000"><ellipse cx="1000" cy="1511.293" fill="#f1f3fa" rx="546.133" ry="62.789"/><path xmlns="http://www.w3.org/2000/svg" fill="rgb(21, 158, 5)" d="M1109.489 731.534s-157.451 91.044-131.712 132.353c17.943 28.797 128.136-30.316 128.136-30.316l19.727-70.246-16.151-31.791z"/><path xmlns="http://www.w3.org/2000/svg" fill="rgb(21, 158, 5)" d="M1326.227 1446.785c-24.576 17.979-48.917 37.409-69.178 61.371a227.127 227.127 0 0 0-14.445 18.889l.757 2.084c4.735-6.792 9.75-13.382 15.13-19.643 20.261-23.461 44.541-42.397 69.175-60.037 49.293-35.696 99.229-70.335 148.28-106.581-25.114 17.002-50.122 34.208-74.99 51.682l-74.729 52.235z"/><path xmlns="http://www.w3.org/2000/svg" fill="rgb(21, 158, 5)" d="M1441.001 1450.581c-18.227-8.275-39.794-14.399-57.194-15.92-17.368-2.037-30.568.53-31.327-2.267-2.849-4.632 48.955-35.451 97.754-26.485 48.092 8.658 60.02 37.167 52.152 50.654-8.227 15.787-25.627 11.438-61.385-5.982z"/><path fill="#1fddc1" d="M1386.088 1421.882c-9.411 1.159-18.712 3.484-27.78 6.89l-.073-.172a131.249 131.249 0 0 1 27.012-7.9c-.41.057-.82.117-1.23.179 8.434-3.919 17.359-7.714 26.902-11.21-6.851 3.365-13.289 6.754-19.388 10.077a120.677 120.677 0 0 1 4.885-.506c2.348-.2 4.712-.337 7.072-.404l.009-.008c9.056-3.191 18.667-6.164 28.945-8.704-7.484 2.842-14.504 5.79-21.129 8.734 3.21.106 6.416.336 9.63.694 1.254.147 2.516.313 3.771.485l-.014-.033c9.153-2.024 18.83-3.72 29.107-4.881a340.087 340.087 0 0 0-21.987 6.119c4.731.938 9.45 2.164 14.078 3.842a264.922 264.922 0 0 1 28.889-1.44 311.457 311.457 0 0 0-22.025 4.289 131.299 131.299 0 0 1 7.49 3.993c2.478 1.45 4.878 3.124 7.219 4.895 4.69 3.518 9.093 7.815 12.664 13.129l-.294.442c-7.11-6.504-14.993-11.337-23.039-15.356 4.076 6.778 7.563 14.202 10.361 22.152-4.779-9.509-10.633-18.057-17.33-25.397-4.038-1.727-8.099-3.32-12.209-4.706 4.835 5.563 9.17 11.87 12.894 18.808-5.93-8.268-12.829-15.385-20.433-21.115l.009-.013a112.495 112.495 0 0 0-9.506-2.13 102.85 102.85 0 0 0-4.144-.631c5.98 4.23 11.525 9.419 16.485 15.443-6.803-6.7-14.414-12.113-22.555-16.025l.078-.074c-1.365-.11-2.722-.201-4.087-.264l-.101.046-.06-.055c-2.031-.089-4.052-.13-6.082-.119 6.173 3.095 12.003 7.202 17.337 12.211-7.417-5.498-15.539-9.558-24.056-11.972l-.009.001a118.704 118.704 0 0 0-5.331.467c-.663.058-1.315.137-1.975.219z"/><path xmlns="http://www.w3.org/2000/svg" fill="rgb(21, 158, 5)" d="M1368.533 1373.144c-1.167 13.089-4.17 27.605-8.104 38.411-3.698 10.924-8.327 18.137-7.291 19.331 1.293 2.93 28.631-19.885 37.586-51.437 8.904-31.046-.54-45.725-8.585-44.592-9.157.74-11.841 12.295-13.606 38.287z"/><path fill="#1fddc1" d="M1365.033 1414.351a91.145 91.145 0 0 1-10.4 14.786l.057.089c3.915-4.278 7.479-8.991 10.643-14.059-.134.23-.269.459-.405.688a237.392 237.392 0 0 0 12.077-13.117 330.808 330.808 0 0 1-9.587 8.925 96.39 96.39 0 0 0 1.516-2.787c.71-1.351 1.396-2.728 2.051-4.121l.006-.003a228.608 228.608 0 0 0 11.51-15.002 283.98 283.98 0 0 1-9.454 10.321c.803-1.947 1.55-3.925 2.243-5.942.267-.788.528-1.587.784-2.383l.007.011a216.931 216.931 0 0 0 9.867-16.106 252.219 252.219 0 0 1-8.525 11.527c.838-3.077 1.545-6.223 2.029-9.434a217.833 217.833 0 0 0 8.284-16.891 241.951 241.951 0 0 1-7.726 12.033c.119-1.838.192-3.684.218-5.535.015-1.866-.09-3.743-.253-5.612-.314-3.735-1.047-7.506-2.451-11.047l-.273.059c.993 5.973 1.042 11.966.689 17.84a67.359 67.359 0 0 0-7.049-12.059 71.462 71.462 0 0 1 6.639 17.085 142.68 142.68 0 0 1-1.152 8.546 65.13 65.13 0 0 0-4.9-12.689 69.563 69.563 0 0 1 3.924 17.807l.011-.003a99.095 99.095 0 0 1-1.579 6.248 90.02 90.02 0 0 1-.818 2.645 62.71 62.71 0 0 0-2.462-13.945 66.579 66.579 0 0 1 1.113 17.728l.053-.027c-.313.845-.632 1.68-.966 2.514l-.047.048.009.051a103.685 103.685 0 0 1-1.557 3.668 58.244 58.244 0 0 0-.808-13.599c.467 5.89.112 11.821-1.076 17.553l-.002.005a94.56 94.56 0 0 1-1.281 2.448c-.108.205-.224.413-.337.616-.203.379-.411.747-.622 1.12z"/><path xmlns="http://www.w3.org/2000/svg" fill="rgb(21, 158, 5)" d="M1503.459 1382.713c-13.592-6.171-29.675-10.738-42.65-11.872-12.951-1.519-22.795.395-23.361-1.691-2.125-3.454 36.506-26.437 72.896-19.75 33.517 6.034 40.883 34.358 38.89 37.773-6.135 11.773-19.11 8.53-45.775-4.46z"/><path fill="#1fddc1" d="M1460.771 1363.051c-7.018.864-13.954 2.598-20.716 5.138l-.054-.128a97.943 97.943 0 0 1 20.143-5.891c-.306.043-.612.088-.917.133 6.289-2.922 12.945-5.752 20.061-8.359a381.123 381.123 0 0 0-14.458 7.515 99.003 99.003 0 0 1 3.642-.378 94.596 94.596 0 0 1 5.274-.302l.007-.006c6.753-2.38 13.92-4.597 21.584-6.491a307.199 307.199 0 0 0-15.756 6.513c2.394.079 4.785.25 7.182.517.935.109 1.876.233 2.812.361l-.01-.024a208.928 208.928 0 0 1 21.706-3.64 253.507 253.507 0 0 0-16.396 4.563c3.528.699 7.047 1.613 10.498 2.865a197.611 197.611 0 0 1 21.543-1.074 232.097 232.097 0 0 0-16.424 3.198 97.746 97.746 0 0 1 5.585 2.978c1.848 1.082 3.637 2.33 5.383 3.65 3.497 2.624 6.781 5.828 9.443 9.791l-.219.329c-5.302-4.85-11.181-8.454-17.18-11.451 3.039 5.054 5.64 10.591 7.726 16.519-3.564-7.091-7.929-13.466-12.923-18.939-3.011-1.288-6.04-2.476-9.104-3.509 3.606 4.148 6.838 8.852 9.615 14.025-4.422-6.165-9.567-11.473-15.237-15.745l.009-.014a85.953 85.953 0 0 0-7.092-1.584 77.598 77.598 0 0 0-3.09-.471c4.46 3.155 8.594 7.024 12.293 11.516-5.073-4.996-10.749-9.033-16.82-11.95l.058-.055a89.04 89.04 0 0 0-3.048-.197l-.076.035-.045-.041a91.496 91.496 0 0 0-4.535-.089c4.603 2.308 8.951 5.371 12.929 9.106-5.531-4.1-11.587-7.128-17.939-8.928h-.007a88.619 88.619 0 0 0-3.169.262c-.267.023-.54.055-.806.086-.494.046-.98.105-1.472.166z"/><path xmlns="http://www.w3.org/2000/svg" fill="rgb(21, 158, 5)" d="M1447.68 1326.707c-.87 9.76-3.109 20.585-6.043 28.644-2.757 8.146-6.209 13.525-5.437 14.415.964 2.185 21.35-14.829 28.028-38.357 6.64-23.151-.403-34.098-6.402-33.253-6.828.552-8.83 9.169-10.146 28.551z"/><path fill="#1fddc1" d="M1445.07 1357.436a68.03 68.03 0 0 1-7.755 11.026l.042.066a71.959 71.959 0 0 0 7.937-10.484c-.1.172-.201.343-.302.513a176.708 176.708 0 0 0 9.006-9.782 247.736 247.736 0 0 1-7.149 6.655 73.208 73.208 0 0 0 1.131-2.078 75.737 75.737 0 0 0 1.529-3.073l.005-.003a170.278 170.278 0 0 0 8.583-11.187 211.113 211.113 0 0 1-7.05 7.697 77.886 77.886 0 0 0 1.672-4.431c.199-.588.394-1.184.585-1.777l.008.013a163.765 163.765 0 0 0 7.355-12.014 189.088 189.088 0 0 1-6.357 8.596c.625-2.295 1.152-4.641 1.513-7.035a162.448 162.448 0 0 0 6.178-12.596 179.85 179.85 0 0 1-5.762 8.974c.089-1.37.143-2.747.162-4.128a44.417 44.417 0 0 0-.188-4.185c-.234-2.786-.781-5.597-1.828-8.238l-.204.044c.74 4.454.777 8.923.514 13.304a50.216 50.216 0 0 0-5.257-8.993 53.305 53.305 0 0 1 4.951 12.74 106.429 106.429 0 0 1-.859 6.373 48.599 48.599 0 0 0-3.654-9.462 51.903 51.903 0 0 1 2.927 13.279l.006-.001a72.45 72.45 0 0 1-1.175 4.659c-.194.66-.396 1.321-.61 1.972a46.758 46.758 0 0 0-1.836-10.399 49.679 49.679 0 0 1 .83 13.22l.04-.02c-.233.63-.471 1.253-.72 1.875a1.172 1.172 0 0 0-.035.036l.004.025a65.788 65.788 0 0 1-1.159 2.748 43.512 43.512 0 0 0-.602-10.141 46.5 46.5 0 0 1-.803 13.089l-.002.004a71.71 71.71 0 0 1-1.206 2.285c-.153.28-.308.555-.465.834z"/><path xmlns="http://www.w3.org/2000/svg" fill="rgb(21, 158, 5)" d="M1377.406 1477.677c-14.617-6.636-31.913-11.548-45.867-12.768-13.928-1.633-24.514.425-25.123-1.818-2.285-3.715 39.259-28.43 78.395-21.24 38.567 6.943 48.133 29.806 41.823 40.622-6.598 12.662-20.552 9.174-49.228-4.796z"/><path fill="#1fddc1" d="M1331.498 1456.532c-7.547.93-15.006 2.794-22.278 5.525l-.058-.138a105.254 105.254 0 0 1 21.662-6.335c-.329.046-.658.094-.986.143 6.764-3.143 13.921-6.186 21.574-8.99-5.494 2.699-10.657 5.416-15.548 8.081a103.07 103.07 0 0 1 9.589-.73l.007-.007c7.263-2.559 14.97-4.943 23.212-6.98a331.203 331.203 0 0 0-16.945 7.004c2.575.085 5.146.269 7.723.556 1.005.118 2.018.251 3.024.389l-.011-.026c7.34-1.623 15.101-2.983 23.343-3.914a272.468 272.468 0 0 0-17.633 4.907c3.794.752 7.578 1.735 11.29 3.081a212.583 212.583 0 0 1 23.167-1.155 250.03 250.03 0 0 0-17.663 3.439c2.024.996 4.027 2.064 6.006 3.202 1.987 1.163 3.912 2.505 5.789 3.925 3.761 2.822 7.292 6.267 10.156 10.529l-.236.354c-5.702-5.215-12.024-9.092-18.476-12.314 3.269 5.436 6.065 11.389 8.309 17.765-3.833-7.626-8.527-14.481-13.898-20.368-3.238-1.385-6.495-2.663-9.791-3.774 3.877 4.461 7.354 9.519 10.341 15.083-4.756-6.63-10.289-12.338-16.387-16.933l.01-.015a92.253 92.253 0 0 0-7.626-1.703 80.282 80.282 0 0 0-3.323-.506c4.796 3.392 9.243 7.554 13.22 12.384-5.455-5.373-11.56-9.714-18.088-12.851l.063-.059a94.85 94.85 0 0 0-3.278-.211l-.081.037-.048-.044a98.016 98.016 0 0 0-4.878-.095c4.95 2.482 9.626 5.776 13.904 9.793-5.948-4.409-12.461-7.665-19.292-9.601h-.005c-1.137.071-2.278.17-3.411.282-.287.025-.581.059-.867.092-.53.049-1.053.112-1.582.178z"/><path xmlns="http://www.w3.org/2000/svg" fill="rgb(21, 158, 5)" d="M1317.419 1417.446c-.936 10.497-3.344 22.138-6.498 30.804-2.965 8.76-6.678 14.545-5.847 15.502 1.037 2.35 22.961-15.947 30.142-41.25 7.141-24.898-.433-36.67-6.885-35.761-7.344.595-9.496 9.861-10.912 30.705z"/><path xmlns="http://www.w3.org/2000/svg" fill="#rgb(21, 158, 5)" d="M1314.613 1450.493a73.142 73.142 0 0 1-8.34 11.858l.046.071a77.357 77.357 0 0 0 8.535-11.275l-.324.552c3.18-3.212 6.42-6.686 9.685-10.52a264.267 264.267 0 0 1-7.688 7.157 88.076 88.076 0 0 0 1.217-2.235 83.306 83.306 0 0 0 1.645-3.305l.005-.003a183.425 183.425 0 0 0 9.231-12.031 227.097 227.097 0 0 1-7.582 8.277 85 85 0 0 0 1.799-4.765c.214-.632.423-1.273.629-1.911a.118.118 0 0 0 .006.009 174.299 174.299 0 0 0 7.913-12.916 202.195 202.195 0 0 1-6.837 9.244c.672-2.468 1.239-4.99 1.627-7.566a175.019 175.019 0 0 0 6.644-13.546 192.958 192.958 0 0 1-6.196 9.65c.096-1.474.154-2.954.174-4.439a47.404 47.404 0 0 0-.203-4.5c-.252-2.996-.84-6.019-1.966-8.86l-.219.047c.796 4.79.836 9.596.552 14.307a53.992 53.992 0 0 0-5.653-9.671 57.278 57.278 0 0 1 5.324 13.702 113.992 113.992 0 0 1-.924 6.853 52.246 52.246 0 0 0-3.93-10.176 55.828 55.828 0 0 1 3.147 14.28l.009-.002a79.467 79.467 0 0 1-1.266 5.011c-.208.71-.427 1.421-.656 2.121a50.206 50.206 0 0 0-1.975-11.183 53.346 53.346 0 0 1 .892 14.217l.043-.022a83.931 83.931 0 0 1-.774 2.016l-.038.039.007.041a81.598 81.598 0 0 1-1.249 2.942 46.738 46.738 0 0 0-.648-10.906c.375 4.724.089 9.48-.863 14.077l-.002.004a77.58 77.58 0 0 1-1.027 1.963c-.087.165-.18.331-.27.494-.165.305-.331.601-.5.9zM1175.714 1461.003c19.336 14.146 38.487 29.433 54.428 48.286a178.473 178.473 0 0 1 11.365 14.862l-.596 1.64c-3.725-5.344-7.671-10.529-11.904-15.455-15.941-18.459-35.044-33.358-54.426-47.236-38.783-28.085-78.072-55.338-116.664-83.856 19.76 13.377 39.435 26.914 59.001 40.663l58.796 41.096z"/><path xmlns="http://www.w3.org/2000/svg" fill="rgb(21, 158, 5)" d="M1085.412 1463.99c14.34-6.511 31.309-11.329 44.999-12.526 13.665-1.602 24.051.417 24.647-1.784 2.242-3.645-38.517-27.893-76.911-20.838-37.838 6.812-47.223 29.242-41.032 39.854 6.473 12.421 20.163 9 48.297-4.706z"/><path fill="#1fddc1" d="M1128.616 1441.41c7.404.912 14.723 2.741 21.857 5.421l.057-.135a103.326 103.326 0 0 0-21.253-6.216c.323.045.645.092.968.141-6.636-3.083-13.658-6.069-21.166-8.82 5.39 2.647 10.455 5.314 15.254 7.928-.802-.096-1.606-.191-2.418-.269a97.889 97.889 0 0 0-1.425-.129 98.247 98.247 0 0 0-5.564-.318l-.007-.006c-7.125-2.511-14.687-4.85-22.773-6.848a324.04 324.04 0 0 1 16.624 6.872 97.058 97.058 0 0 0-7.577.546c-.986.116-1.98.246-2.967.381l.011-.026c-7.201-1.592-14.815-2.927-22.901-3.84a268.131 268.131 0 0 1 17.299 4.814c-3.722.738-7.435 1.702-11.076 3.023a208.521 208.521 0 0 0-22.729-1.133 244.858 244.858 0 0 1 17.329 3.374 103.432 103.432 0 0 0-5.893 3.142c-1.95 1.141-3.838 2.458-5.679 3.851-3.69 2.768-7.154 6.148-9.964 10.33l.232.348c5.594-5.117 11.797-8.92 18.127-12.081-3.207 5.333-5.951 11.174-8.151 17.429 3.76-7.482 8.366-14.207 13.635-19.982 3.177-1.359 6.373-2.612 9.606-3.702-3.804 4.377-7.215 9.339-10.145 14.797 4.666-6.505 10.094-12.105 16.077-16.613l-.01-.014a90.402 90.402 0 0 1 7.482-1.671 80.672 80.672 0 0 1 3.26-.497c-4.705 3.328-9.068 7.411-12.97 12.15 5.352-5.271 11.341-9.53 17.746-12.608l-.061-.058a93.6 93.6 0 0 1 3.216-.207l.08.036.047-.043a97.943 97.943 0 0 1 4.785-.094c-4.857 2.435-9.444 5.667-13.641 9.607 5.835-4.326 12.225-7.52 18.927-9.42h.007c1.114.07 2.233.167 3.344.277.281.024.569.058.85.09.519.046 1.031.108 1.55.173z"/><path xmlns="http://www.w3.org/2000/svg" fill="rgb(21, 158, 5)" d="M1142.429 1403.063c.918 10.298 3.281 21.719 6.376 30.222 2.909 8.594 6.551 14.27 5.736 15.209-1.018 2.305-22.526-15.645-29.572-40.47-7.006-24.427.425-35.976 6.755-35.084 7.204.583 9.316 9.674 10.705 30.123z"/><path fill="#1fddc1" d="M1145.182 1435.485a71.66 71.66 0 0 0 8.182 11.633l-.045.07a75.942 75.942 0 0 1-8.374-11.062c.105.181.212.361.318.541a186.282 186.282 0 0 1-9.502-10.321 260.152 260.152 0 0 0 7.543 7.022 81.423 81.423 0 0 1-2.807-5.435l-.005-.003a179.867 179.867 0 0 1-9.056-11.803 223.29 223.29 0 0 0 7.439 8.121 82.578 82.578 0 0 1-1.765-4.675c-.21-.62-.415-1.249-.617-1.875l-.006.009a170.622 170.622 0 0 1-7.763-12.672 198.013 198.013 0 0 0 6.708 9.069c-.659-2.421-1.216-4.896-1.596-7.423a171.443 171.443 0 0 1-6.518-13.29 189.813 189.813 0 0 0 6.079 9.468 85.147 85.147 0 0 1-.171-4.355 46.608 46.608 0 0 1 .199-4.415c.247-2.939.824-5.905 1.929-8.692l.215.046c-.781 4.699-.82 9.415-.542 14.036a52.92 52.92 0 0 1 5.547-9.488 56.244 56.244 0 0 0-5.224 13.442c.24 2.259.532 4.502.906 6.724a51.283 51.283 0 0 1 3.855-9.983 54.785 54.785 0 0 0-3.088 14.01l-.009-.002a78.52 78.52 0 0 0 1.242 4.916c.204.697.418 1.394.644 2.081a49.319 49.319 0 0 1 1.937-10.972 52.377 52.377 0 0 0-.875 13.948l-.028-.014c.232.658.483 1.315.745 1.971l.037.038-.007.04c.392.974.799 1.933 1.225 2.886a45.834 45.834 0 0 1 .636-10.699 49.06 49.06 0 0 0 .847 13.81l.002.004a76.371 76.371 0 0 0 1.273 2.41c.161.3.324.591.49.884z"/><path xmlns="http://www.w3.org/2000/svg" fill="rgb(21, 158, 5)" d="M1036.271 1410.592c10.694-4.855 23.348-8.448 33.556-9.341 10.19-1.195 17.935.311 18.38-1.33 1.672-2.718-28.722-20.8-57.354-15.539-26.371 4.747-32.166 27.032-30.598 29.719 4.828 9.263 15.037 6.712 36.016-3.509z"/><path fill="#1fddc1" d="M1069.858 1395.123c5.521.68 10.979 2.044 16.299 4.042l.043-.101a76.993 76.993 0 0 0-15.849-4.635c.241.034.481.069.722.105-4.948-2.299-10.185-4.526-15.784-6.577a301.433 301.433 0 0 1 11.375 5.912 74.687 74.687 0 0 0-7.015-.534l-.006-.005c-5.313-1.872-10.952-3.617-16.982-5.107a243.064 243.064 0 0 1 12.397 5.124 72.52 72.52 0 0 0-5.65.407c-.736.086-1.476.183-2.213.284l.008-.019a164.627 164.627 0 0 0-17.078-2.864 199.29 199.29 0 0 1 12.9 3.59c-2.776.55-5.544 1.269-8.26 2.254a155.646 155.646 0 0 0-16.949-.845 182.15 182.15 0 0 1 12.922 2.516 76.427 76.427 0 0 0-4.394 2.343c-1.454.851-2.862 1.833-4.235 2.872-2.751 2.064-5.335 4.585-7.43 7.703l.173.259c4.172-3.816 8.797-6.652 13.517-9.009-2.391 3.977-4.437 8.333-6.079 12.997 2.804-5.579 6.239-10.594 10.168-14.901a97.418 97.418 0 0 1 7.163-2.761c-2.837 3.264-5.38 6.964-7.565 11.035 3.479-4.851 7.527-9.027 11.989-12.388l-.007-.011a67.525 67.525 0 0 1 5.579-1.246 59.175 59.175 0 0 1 2.431-.37c-3.509 2.482-6.762 5.526-9.672 9.06 3.991-3.931 8.457-7.107 13.234-9.402l-.046-.043a71.443 71.443 0 0 1 2.398-.155l.06.027.035-.032a73.267 73.267 0 0 1 3.568-.07c-3.622 1.816-7.042 4.226-10.172 7.164 4.352-3.226 9.117-5.608 14.114-7.024h.005c.83.052 1.665.124 2.494.206.21.018.425.043.634.067.388.037.77.083 1.158.132z"/><path xmlns="http://www.w3.org/2000/svg" fill="rgb(21, 158, 5)" d="M1080.157 1366.527c.685 7.679 2.446 16.196 4.754 22.536 2.169 6.409 4.885 10.641 4.278 11.342-.759 1.719-16.798-11.667-22.052-30.178-5.224-18.215.317-26.828 5.037-26.163 5.373.435 6.948 7.214 7.983 22.463z"/><path fill="#1fddc1" d="M1082.211 1390.704a53.443 53.443 0 0 0 6.102 8.675l-.033.052a56.674 56.674 0 0 1-6.245-8.249l.237.404a139.264 139.264 0 0 1-7.086-7.696 193.574 193.574 0 0 0 5.625 5.236c-.19-.339-.38-.678-.566-1.025-.11-.203-.216-.405-.324-.61-.417-.792-.819-1.6-1.203-2.418l-.004-.002a134.036 134.036 0 0 1-6.753-8.802 166.091 166.091 0 0 0 5.547 6.056 61.771 61.771 0 0 1-1.776-4.884l-.006.01a129.074 129.074 0 0 1-5.787-9.453 147.927 147.927 0 0 0 5.002 6.763 48.83 48.83 0 0 1-1.19-5.535 127.9 127.9 0 0 1-4.86-9.91 141.922 141.922 0 0 0 4.533 7.06 63.685 63.685 0 0 1-.128-3.248 34.875 34.875 0 0 1 .148-3.292c.184-2.192.614-4.404 1.438-6.482l.16.035c-.582 3.504-.612 7.021-.404 10.467a39.512 39.512 0 0 1 4.136-7.075 41.926 41.926 0 0 0-3.895 10.024c.179 1.685.397 3.357.676 5.014a38.23 38.23 0 0 1 2.875-7.445 40.808 40.808 0 0 0-2.302 10.448l-.005-.001c.266 1.235.579 2.458.924 3.665.152.52.312 1.04.48 1.552a36.746 36.746 0 0 1 1.445-8.182 39.042 39.042 0 0 0-.653 10.401l-.031-.016c.184.496.371.986.566 1.475l.028.028-.005.03c.292.726.596 1.442.914 2.152a34.21 34.21 0 0 1 .474-7.979 36.587 36.587 0 0 0 .631 10.299l.002.003a57.336 57.336 0 0 0 .949 1.797c.118.223.24.44.364.658z"/><path xmlns="http://www.w3.org/2000/svg" fill="rgb(21, 158, 5)" d="M1135.447 1485.308c11.5-5.221 25.109-9.086 36.087-10.045 10.959-1.285 19.287.335 19.766-1.43 1.798-2.923-30.889-22.369-61.679-16.711-30.344 5.463-37.87 23.451-32.906 31.961 5.192 9.961 16.171 7.217 38.732-3.775z"/><path fill="#1fddc1" d="M1171.567 1468.672c5.938.731 11.807 2.198 17.528 4.347l.046-.109a82.81 82.81 0 0 0-17.044-4.985c.259.036.517.074.776.113-5.322-2.473-10.953-4.867-16.974-7.073a323.128 323.128 0 0 1 12.233 6.358 85.734 85.734 0 0 0-3.082-.32 79.033 79.033 0 0 0-4.462-.255l-.006-.005c-5.714-2.014-11.778-3.889-18.263-5.492a259.961 259.961 0 0 1 13.332 5.511 78.1 78.1 0 0 0-6.076.438c-.791.093-1.588.197-2.379.306l.009-.021a176.79 176.79 0 0 0-18.366-3.08 215.087 215.087 0 0 1 13.873 3.86c-2.985.592-5.962 1.365-8.883 2.424a167.468 167.468 0 0 0-18.228-.909c4.899.768 9.522 1.693 13.897 2.706a82.658 82.658 0 0 0-4.726 2.52c-1.564.915-3.078 1.971-4.555 3.088-2.959 2.22-5.737 4.931-7.99 8.284l.186.279c4.486-4.104 9.46-7.153 14.537-9.689-2.572 4.277-4.772 8.961-6.537 13.977 3.015-6 6.709-11.394 10.934-16.025 2.548-1.089 5.11-2.095 7.703-2.969-3.051 3.51-5.786 7.49-8.136 11.867 3.742-5.217 8.095-9.708 12.893-13.323l-.008-.011a72.724 72.724 0 0 1 6-1.34 66.55 66.55 0 0 1 2.615-.399c-3.774 2.669-7.272 5.943-10.402 9.744 4.292-4.227 9.095-7.643 14.232-10.111l-.049-.047a76.762 76.762 0 0 1 2.579-.166l.064.029.038-.035a77.994 77.994 0 0 1 3.838-.075c-3.895 1.953-7.573 4.544-10.939 7.705 4.68-3.469 9.804-6.031 15.179-7.554h.004c.895.056 1.793.134 2.684.222.226.02.457.047.682.073.416.041.827.09 1.243.142z"/><path xmlns="http://www.w3.org/2000/svg" fill="rgb(21, 158, 5)" d="M1182.644 1437.92c.737 8.258 2.631 17.418 5.113 24.236 2.333 6.892 5.254 11.443 4.6 12.197-.816 1.849-18.065-12.547-23.715-32.455-5.618-19.589.341-28.851 5.417-28.136 5.778.468 7.471 7.758 8.585 24.158z"/><path fill="#1fddc1" d="M1184.852 1463.921a57.442 57.442 0 0 0 6.562 9.329l-.036.056a60.812 60.812 0 0 1-6.715-8.871l.255.434a149.573 149.573 0 0 1-7.62-8.276 207.975 207.975 0 0 0 6.049 5.631c-.204-.364-.409-.729-.609-1.102a64.842 64.842 0 0 1-1.642-3.256l-.004-.002a144.206 144.206 0 0 1-7.262-9.466 178.516 178.516 0 0 0 5.965 6.512 66.36 66.36 0 0 1-1.415-3.749 115.07 115.07 0 0 1-.495-1.504l-.005.007a137.228 137.228 0 0 1-6.226-10.162 159.425 159.425 0 0 0 5.379 7.273 52.22 52.22 0 0 1-1.28-5.953 137.576 137.576 0 0 1-5.227-10.658 152.733 152.733 0 0 0 4.875 7.593 68.646 68.646 0 0 1-.137-3.493 37.819 37.819 0 0 1 .159-3.541c.198-2.357.661-4.736 1.547-6.971l.172.037c-.626 3.769-.658 7.55-.434 11.257a42.492 42.492 0 0 1 4.448-7.609 45.088 45.088 0 0 0-4.189 10.78c.193 1.812.427 3.61.727 5.392a41.109 41.109 0 0 1 3.092-8.006 43.94 43.94 0 0 0-2.476 11.235l-.007-.002c.288 1.329.625 2.644.996 3.943.164.559.335 1.118.516 1.669a39.52 39.52 0 0 1 1.554-8.799 41.999 41.999 0 0 0-.702 11.186l-.034-.017c.197.533.399 1.06.609 1.586l.03.031-.005.032c.314.781.641 1.551.983 2.314a36.736 36.736 0 0 1 .51-8.58 39.35 39.35 0 0 0 .679 11.075l.002.003a61.13 61.13 0 0 0 1.021 1.934c.127.24.257.472.39.708z"/><path fill="#f66531" d="M1271.124 1528.364c.866 0 1.315-1.115 1.514-2.708.733-5.866-3.525-11.11-9.291-12.414-8.68-1.964-16.468-5.361-23.296-10.299h-12.824v21.206a4.215 4.215 0 0 0 4.215 4.215h39.682z"/><path fill="#180e34" d="m1124.102 1034.439 100.179 470.194c.296 3.254 18.902 1.563 18.606-1.692l11.58-473.117-130.365 4.615z"/><path fill="#f66531" d="M1174.283 1528.683c.45.74 1.636.543 3.101-.115 5.392-2.424 7.658-8.787 5.774-14.391-2.836-8.436-3.982-16.854-3.315-25.255l-6.667-10.955-18.115 11.025a4.216 4.216 0 0 0-1.409 5.792l20.631 33.899z"/><path fill="#28214f" d="M1338.302 1025.979s81.142 209.201 68.452 241.119c-29.113 73.223-225.975 224.419-225.975 224.419-2.016 1.379-11.921-13.075-9.905-14.454l141.279-215.733-112.475-223.225 78.633-46.736 59.991 34.61z"/><path xmlns="http://www.w3.org/2000/svg" fill="rgb(13, 100, 3)" d="M1340.994 738.712c-34.867-34.61-214.713-29.314-231.505-7.178-8.752 11.537.769 295.983.769 295.983 1.724 37.379 239.382 28.919 237.658-8.46 0 0 8.136-265.397-6.922-280.345z"/><path fill="#ffccbe" d="M1326.095 1082.131s-4.109 36.396-23.248 28.061c-18.317-7.866 5.049-24.068 7.28-25.595-.939.47-6.341 3.17-7.28-.118-1.057-3.405 16.908-8.101 16.908-8.101l6.34 5.753z"/><path xmlns="http://www.w3.org/2000/svg" fill="rgb(21, 158, 5)" d="M1340.994 738.712c15.382-6.409 75.2 132.411 73.12 173.433-2.658 52.419-86.436 171.292-86.436 171.292-1.076 1.204-10.356-7.15-9.28-8.354l43.672-143.197s-35.89-115.909-41.326-139.116c-4.274-18.245 2.951-46.85 20.25-54.058z"/><path fill="#cfd8f9" d="M1095.353 887.726v335.89c0 7.997-6.316 14.313-14.315 14.313l-172.551 5.895c-2.526-3.577-336.469-5.895-336.469-5.895-7.999 0-14.314-6.316-14.314-14.313v-335.89c0-7.999 6.315-14.315 14.314-14.315h509.02c7.999 0 14.315 6.316 14.315 14.315z"/><path fill="#cfd8f9" d="M572.018 1237.929H896.91c1.021 0 1.919.496 2.901.708h145.762c.982-.213 1.879-.708 2.9-.708h32.566c8 0 14.316-6.317 14.316-14.313V887.725c0-7.996-6.316-14.313-14.316-14.313h-509.02c-7.999 0-14.314 6.317-14.314 14.313v335.892c-.001 7.995 6.314 14.312 14.313 14.312z"/><path fill="#ffccbe" d="M1212.729 863.145c-6.63 34.648-72.978 12.837-72.978 12.837l5.702-18.49s22.121-22.741 27.124-16.737c4.253 5.127-7.005 11.507-10.132 13.259 7.38-3.127 56.288-22.891 50.284 9.131z"/><path xmlns="http://www.w3.org/2000/svg" fill="rgb(21, 158, 5)" d="M999.633 821.521c37.663-5.599 149.722 27.945 149.722 27.945 4.828 1.933-6.965 31.417-11.793 29.483 0 0-113.178 11.92-145.033-.433-40.752-15.803-11.868-54.175 7.104-56.995z"/><path fill="#fcbdae" d="m1193.514 668.427-1.447 45.463c-.704 22.127 63.034 24.155 63.739 2.028l1.446-45.462-63.738-2.029z"/><path fill="#ffccbe" d="M1295.165 615.65c-1.396 43.878-33.295 90.607-70.774 89.414-37.532-1.194-66.396-49.856-65-93.734 1.396-43.878 32.525-66.409 70.057-65.215 34.091 1.085 61.65 21.393 65.328 58.058.368 3.672.516 7.498.389 11.477z"/><path fill="#28214f" d="M1294.781 604.201c-2.891 1.696-13.599 8.756-13.614 18.931l-3.439-15.958s-3.123-2.628-5.094-6.576c-17.077 9.509-46.207 12.159-93.575.723.495 3.839.544 8.096-.857 11.443-3.615 8.95-7.72 19.735-7.72 19.735s-3.136-17.737-11.104-21.198c.175-5.483.884-10.332 2.009-14.675-131.07-89.425 141.495-154.51 128.046-58.828-.185 1.315.906 2.557 1.234 3.863 21.48 7.097 31.844 26.359 4.114 62.54z"/><path fill="#fff" d="M719.677 970.841c0 12.367-3.551 23.999-9.795 33.672-1.592 2.572-3.428 5.143-5.51 7.47-11.51 13.591-28.774 22.162-47.998 22.162-19.346 0-36.488-8.571-47.998-22.162-2.204-2.326-3.918-4.898-5.633-7.47-6.122-9.673-9.673-21.305-9.673-33.672 0-34.896 28.285-63.303 63.303-63.303 34.897-.001 63.304 28.406 63.304 63.303z"/><path fill="#5650a3" d="M676.682 949.256c0 10.573-9.092 26.884-20.308 26.884s-20.308-16.311-20.308-26.884 9.092-19.145 20.308-19.145c11.215 0 20.308 8.572 20.308 19.145zM698.617 1002.332c-10.13 11.962-25.324 19.505-42.243 19.505-17.027 0-32.113-7.544-42.243-19.505 10.022-11.962 25.216-19.613 42.243-19.613 16.919 0 32.221 7.651 42.243 19.613z"/><path fill="#fff" d="M676.289 1130.202v65.624c0 4.923-4 8.924-8.923 8.924h-65.373c-4.923 0-8.923-4-8.923-8.924v-65.624c0-4.923 4-8.923 8.923-8.923h65.373c4.923-.001 8.923 4 8.923 8.923z"/><path fill="#6563ad" d="M668.832 1185.752h-68.305l23.381-35.421 21.18 30.719-4.525-10.574 8.278-11.103z"/><circle cx="661.03" cy="1148.079" r="7.803" fill="#fcb94c" transform="rotate(-45.001 661.02 1148.092)"/><path fill="#fff" d="M791.528 916.099v34.65c0 3.242-2.731 5.8-5.974 5.8h-40.448c-3.243 0-5.802-2.558-5.802-5.8v-34.65c0-3.242 2.559-5.8 5.802-5.8h40.448c3.243 0 5.974 2.558 5.974 5.8zM791.528 991.121v34.65c0 3.242-2.731 5.8-5.974 5.8h-40.448c-3.243 0-5.802-2.558-5.802-5.8v-34.65c0-3.242 2.559-5.8 5.802-5.8h40.448c3.243 0 5.974 2.559 5.974 5.8zM645.294 1060.481v34.65c0 3.242-2.731 5.8-5.974 5.8h-40.448c-3.243 0-5.802-2.558-5.802-5.8v-34.65c0-3.242 2.559-5.8 5.802-5.8h40.448c3.243 0 5.974 2.558 5.974 5.8zM821.366 917.674h241.087v8.611H821.366zM821.366 940.562h108.8v8.613h-108.8zM821.366 992.696h241.087v8.611H821.366zM821.366 1015.587h192.712v8.608H821.366zM668.833 1062.056h393.621v8.611H668.833zM668.832 1084.947H983.47v8.608H668.832zM697.633 1135.898h364.821v8.611H697.633zM697.632 1158.71h364.821v8.608H697.632zM697.632 1181.522h290.037v8.608H697.632z"/><path fill="#b2c1f9" d="M664.044 580.636h-22.217v-6.133h16.367c2.333-26 23.933-45.95 50.4-45.95 22.05 0 40.65 12.983 47.367 33.083l-5.8 1.933c-5.967-17.817-21.9-28.883-41.567-28.883-24.133 0-43.667 18.883-44.45 42.983l-.1 2.967z"/><path fill="#b2c1f9" d="M677.994 578.503h-6.133c0-19.5 15.883-35.367 35.383-35.367v6.133c-16.134 0-29.25 13.117-29.25 29.234zM829.094 613.219h-28.267v-3.067c0-24.517-19.95-44.45-44.467-44.45-15.817 0-30.583 8.517-38.517 22.217l-5.3-3.067c9.033-15.6 25.817-25.283 43.817-25.283 26.867 0 48.917 21.05 50.5 47.517h22.233v6.133z"/><path fill="#b2c1f9" d="m732.294 595.669-5.3-3.067c6.267-10.817 17.9-17.55 30.4-17.55v6.133c-10.317.001-19.934 5.551-25.1 14.484zM599.31 575.436h24.433v6.133H599.31zM837.31 607.086h9.617v6.133h-9.617zM666.227 610.153h-6.133c0-9.233 7.517-16.75 16.767-16.75v6.133c-5.867 0-10.634 4.767-10.634 10.617zM1196.894 360.069h-16.767v-4.633h12.367c1.767-19.633 18.067-34.7 38.05-34.7 16.667 0 30.7 9.817 35.767 24.983l-4.4 1.467c-4.483-13.467-16.5-21.817-31.367-21.817-18.233 0-32.967 14.25-33.567 32.467l-.083 2.233z"/><path fill="#b2c1f9" d="M1207.444 358.453h-4.633c0-14.733 11.983-26.717 26.7-26.717v4.633c-12.167 0-22.067 9.9-22.067 22.084zM1321.527 384.669h-21.35v-2.317c0-18.517-15.05-33.567-33.567-33.567-11.95 0-23.1 6.433-29.083 16.767l-4-2.3c6.8-11.783 19.483-19.1 33.083-19.1 20.283 0 36.933 15.9 38.133 35.883h16.783v4.634z"/><path fill="#b2c1f9" d="m1248.427 371.419-4-2.333c4.75-8.167 13.55-13.25 22.967-13.25v4.633c-7.784 0-15.05 4.184-18.967 10.95zM1148.027 356.136h18.433v4.633h-18.433zM1327.727 380.036h7.267v4.633h-7.267zM1198.56 382.353h-4.633c0-6.983 5.683-12.667 12.65-12.667v4.633c-4.417 0-8.017 3.6-8.017 8.034zM656.694 369.686h21.2v4.633h-21.2zM693.877 369.686h108.717v4.633H693.877zM1393.76 543.886h21.2v4.633h-21.2zM1430.944 543.886h108.717v4.633h-108.717z"/></svg>